<?xml version="1.0" encoding="iso-8859-1"?>
<!-- Generator: Adobe Illustrator 19.0.0, SVG Export Plug-In . SVG Version: 6.00 Build 0)  -->
<svg xmlns="http://www.w3.org/2000/svg" xmlns:xlink="http://www.w3.org/1999/xlink" version="1.1" id="Capa_1" x="0px" y="0px" viewBox="0 0 512.001 512.001" style="enable-background:new 0 0 512.001 512.001;" xml:space="preserve">
<path style="fill:#F24F43;" d="M256,406.267L256,406.267c-6.349,0-12.376-2.831-16.481-7.74l-90.414-108.133  c-21.455-25.66-33.231-58.206-33.231-91.844v-10.102C115.874,110,178.611,46.404,256,46.404l0,0  c77.389,0,140.126,63.596,140.126,142.045v10.102c0,33.637-11.776,66.183-33.231,91.844l-90.414,108.133  C268.376,403.437,262.349,406.267,256,406.267z"/>
<path style="fill:#ED322E;" d="M396.126,188.449v10.102c0,33.637-11.776,66.183-33.231,91.844l-90.414,108.133  c-4.105,4.909-10.132,7.74-16.481,7.74c-4.555,0-8.936-1.47-12.568-4.108c1.886-1.229,3.606-2.738,5.087-4.509l95.884-114.675  c22.753-27.213,35.242-61.728,35.242-97.4v-10.713c0-29.864-8.577-57.693-23.366-81.105c-1.43-3.053-2.939-6.061-4.536-9.013  C379.053,110.664,396.126,147.533,396.126,188.449z"/>
<path style="fill:#FBB03B;" d="M323.943,180.649c0,38.038-30.419,68.874-67.943,68.874s-67.943-30.836-67.943-68.874  s30.419-68.874,67.943-68.874S323.943,142.611,323.943,180.649z"/>
<path style="fill:#FEC76B;" d="M304.754,180.649c0,27.295-21.828,49.422-48.754,49.422s-48.754-22.127-48.754-49.422  s21.828-49.422,48.754-49.422S304.754,153.354,304.754,180.649z"/>
<path style="fill:#8EB55E;" d="M433.5,504.5h-355c0-21.486,79.469-38.904,177.5-38.904S433.5,483.014,433.5,504.5z"/>
<path style="fill:#5BA14D;" d="M224.848,466.194c10.114-0.392,20.523-0.598,31.152-0.598c98.031,0,177.5,17.418,177.5,38.904  h-49.606C354.52,484.094,295.3,469.277,224.848,466.194z"/>
<path style="fill:#8EB55E;" d="M345.432,7.5h87.108v89.343c0,41.974-34.026,76-76,76h-11.108c-41.974,0-76-34.026-76-76V83.5  C269.432,41.526,303.46,7.5,345.432,7.5z"/>
<path d="M441,504.5c0,4.142-3.358,7.5-7.5,7.5H173.487c-4.142,0-7.5-3.358-7.5-7.5s3.358-7.5,7.5-7.5h244.484  c-6.688-3.798-18.39-8.417-38.068-12.738c-33.013-7.25-77.016-11.242-123.903-11.242s-90.89,3.993-123.903,11.243  c-19.678,4.321-31.38,8.939-38.068,12.738h50.673c4.142,0,7.5,3.358,7.5,7.5s-3.358,7.5-7.5,7.5H78.5c-4.142,0-7.5-3.358-7.5-7.5  c0-14.923,18.933-26.335,57.88-34.889c34.038-7.475,79.183-11.592,127.12-11.592s93.082,4.117,127.12,11.592  C422.067,478.165,441,489.577,441,504.5z M245.295,120.44c4.075-0.74,6.779-4.645,6.039-8.72c-0.741-4.075-4.646-6.775-8.72-6.039  c-35.958,6.534-62.057,38.206-62.057,75.307c0,42.187,33.844,76.509,75.443,76.509c33.292,0,62.262-21.654,72.087-53.883  c1.208-3.962-1.024-8.153-4.987-9.361c-3.961-1.208-8.153,1.024-9.361,4.987c-7.888,25.873-31.092,43.257-57.74,43.257  c-33.329,0-60.443-27.593-60.443-61.509C195.557,151.142,216.475,125.677,245.295,120.44z M281.228,150.496  c-12.044-14.475-19.295-33.071-19.295-53.33V83.5c0-46.042,37.458-83.5,83.5-83.5h87.108c4.142,0,7.5,3.358,7.5,7.5v89.667  c0,46.042-37.458,83.5-83.5,83.5h-11.108c-20.394,0-39.105-7.351-53.621-19.539l-14.888,15.121  c-2.907,2.951-7.654,2.988-10.606,0.083s-2.989-7.654-0.083-10.606L281.228,150.496z M291.811,139.748l16.176-16.43V86.052  c0-4.142,3.358-7.5,7.5-7.5s7.5,3.358,7.5,7.5v22.031l22.167-22.515V58.183c0-4.142,3.358-7.5,7.5-7.5s7.5,3.358,7.5,7.5v12.149  l40.178-40.808c2.905-2.952,7.654-2.989,10.606-0.083s2.989,7.654,0.083,10.606L370.29,81.418h15.748c4.142,0,7.5,3.358,7.5,7.5  s-3.358,7.5-7.5,7.5H355.52l-22.127,22.474h25.909c4.142,0,7.5,3.358,7.5,7.5s-3.358,7.5-7.5,7.5h-40.677l-16.254,16.509  c11.773,9.541,26.763,15.265,43.062,15.265h11.108c37.771,0,68.5-30.729,68.5-68.5V15h-79.608c-37.771,0-68.5,30.729-68.5,68.5  v13.667C276.932,113.247,282.5,128.048,291.811,139.748z M178.801,338.239c1.483,1.778,3.615,2.695,5.762,2.695  c1.694,0,3.399-0.571,4.801-1.742c3.181-2.654,3.607-7.383,0.953-10.563l-35.454-42.485c-20.307-24.333-31.49-55.309-31.49-87.218  v-10.122c0-72.612,55.862-131.784,127.174-134.712c4.139-0.17,7.356-3.663,7.186-7.801c-0.169-4.139-3.662-7.356-7.801-7.186  c-38.168,1.567-73.803,17.849-100.339,45.846c-26.581,28.045-41.22,64.928-41.22,103.854v10.122  c0,35.416,12.42,69.804,34.973,96.829L178.801,338.239z M233.761,404.099c5.541,6.641,13.647,10.45,22.239,10.45  c8.592,0,16.698-3.809,22.239-10.45l90.414-108.345c22.553-27.025,34.973-61.413,34.973-96.829v-5.457c0-4.142-3.358-7.5-7.5-7.5  s-7.5,3.358-7.5,7.5v5.457c0,31.91-11.183,62.885-31.49,87.218l-90.414,108.345c-2.683,3.216-6.591,5.06-10.722,5.06  s-8.039-1.844-10.722-5.06l-35.907-43.028c-2.655-3.181-7.384-3.607-10.563-0.953c-3.181,2.654-3.607,7.383-0.953,10.563  L233.761,404.099z"/>
<g>
</g>
<g>
</g>
<g>
</g>
<g>
</g>
<g>
</g>
<g>
</g>
<g>
</g>
<g>
</g>
<g>
</g>
<g>
</g>
<g>
</g>
<g>
</g>
<g>
</g>
<g>
</g>
<g>
</g>
</svg>
